<?xml version="1.0" encoding="UTF-8" standalone="no"?>
<!-- Created with Inkscape (http://www.inkscape.org/) -->

<svg
   xmlns:osb="http://www.openswatchbook.org/uri/2009/osb"
   xmlns:dc="http://purl.org/dc/elements/1.1/"
   xmlns:cc="http://creativecommons.org/ns#"
   xmlns:rdf="http://www.w3.org/1999/02/22-rdf-syntax-ns#"
   xmlns:svg="http://www.w3.org/2000/svg"
   xmlns="http://www.w3.org/2000/svg"
   xmlns:sodipodi="http://sodipodi.sourceforge.net/DTD/sodipodi-0.dtd"
   xmlns:inkscape="http://www.inkscape.org/namespaces/inkscape"
   id="svg2985"
   version="1.1"
   inkscape:version="0.48.5 r10040"
   width="250"
   height="250"
   sodipodi:docname="clickeat_grey.svg"
   style="enable-background:new"
   inkscape:export-filename="/home/lfbarreto/Bureau/clickeatblue.svg.png"
   inkscape:export-xdpi="9.5060673"
   inkscape:export-ydpi="9.5060673">
  <metadata
     id="metadata2991">
    <rdf:RDF>
      <cc:Work
         rdf:about="">
        <dc:format>image/svg+xml</dc:format>
        <dc:type
           rdf:resource="http://purl.org/dc/dcmitype/StillImage" />
        <dc:title />
      </cc:Work>
    </rdf:RDF>
  </metadata>
  <defs
     id="defs2989">
    <linearGradient
       id="linearGradient8596"
       osb:paint="gradient">
      <stop
         style="stop-color:#000000;stop-opacity:1;"
         offset="0"
         id="stop8598" />
      <stop
         style="stop-color:#000000;stop-opacity:0;"
         offset="1"
         id="stop8600" />
    </linearGradient>
    <marker
       inkscape:stockid="DotM"
       orient="auto"
       refY="0"
       refX="0"
       id="DotM"
       style="overflow:visible">
      <path
         id="path4043"
         d="m -2.5,-1 c 0,2.76 -2.24,5 -5,5 -2.76,0 -5,-2.24 -5,-5 0,-2.76 2.24,-5 5,-5 2.76,0 5,2.24 5,5 z"
         style="fill-rule:evenodd;stroke:#000000;stroke-width:1pt"
         transform="matrix(0.4,0,0,0.4,2.96,0.4)"
         inkscape:connector-curvature="0" />
    </marker>
    <marker
       style="overflow:visible"
       id="DistanceEnd"
       refX="0"
       refY="0"
       orient="auto"
       inkscape:stockid="DistanceEnd">
      <g
         id="g2301">
        <path
           style="fill:none;stroke:#ffffff;stroke-width:1.14999998;stroke-linecap:square"
           d="M 0,0 -2,0"
           id="path2316"
           inkscape:connector-curvature="0" />
        <path
           style="fill:#000000;fill-rule:evenodd;stroke:none"
           d="M 0,0 -13,4 -9,0 -13,-4 0,0 z"
           id="path2312"
           inkscape:connector-curvature="0" />
        <path
           style="fill:none;stroke:#000000;stroke-width:1;stroke-linecap:square"
           d="M 0,-4 0,40"
           id="path2314"
           inkscape:connector-curvature="0" />
      </g>
    </marker>
    <marker
       inkscape:stockid="Tail"
       orient="auto"
       refY="0"
       refX="0"
       id="Tail"
       style="overflow:visible">
      <g
         id="g4015"
         transform="scale(-1.2,-1.2)">
        <path
           id="path4017"
           d="M -3.8048674,-3.9585227 0.54352094,0"
           style="fill:none;stroke:#000000;stroke-width:0.80000001;stroke-linecap:round"
           inkscape:connector-curvature="0" />
        <path
           id="path4019"
           d="M -1.2866832,-3.9585227 3.0617053,0"
           style="fill:none;stroke:#000000;stroke-width:0.80000001;stroke-linecap:round"
           inkscape:connector-curvature="0" />
        <path
           id="path4021"
           d="M 1.3053582,-3.9585227 5.6537466,0"
           style="fill:none;stroke:#000000;stroke-width:0.80000001;stroke-linecap:round"
           inkscape:connector-curvature="0" />
        <path
           id="path4023"
           d="M -3.8048674,4.1775838 0.54352094,0.21974226"
           style="fill:none;stroke:#000000;stroke-width:0.80000001;stroke-linecap:round"
           inkscape:connector-curvature="0" />
        <path
           id="path4025"
           d="M -1.2866832,4.1775838 3.0617053,0.21974226"
           style="fill:none;stroke:#000000;stroke-width:0.80000001;stroke-linecap:round"
           inkscape:connector-curvature="0" />
        <path
           id="path4027"
           d="M 1.3053582,4.1775838 5.6537466,0.21974226"
           style="fill:none;stroke:#000000;stroke-width:0.80000001;stroke-linecap:round"
           inkscape:connector-curvature="0" />
      </g>
    </marker>
    <marker
       inkscape:stockid="Arrow1Lend"
       orient="auto"
       refY="0"
       refX="0"
       id="Arrow1Lend"
       style="overflow:visible">
      <path
         id="path3982"
         d="M 0,0 5,-5 -12.5,0 5,5 0,0 z"
         style="fill-rule:evenodd;stroke:#000000;stroke-width:1pt"
         transform="matrix(-0.8,0,0,-0.8,-10,0)"
         inkscape:connector-curvature="0" />
    </marker>
    <marker
       inkscape:stockid="Arrow1Lstart"
       orient="auto"
       refY="0"
       refX="0"
       id="Arrow1Lstart"
       style="overflow:visible">
      <path
         id="path3979"
         d="M 0,0 5,-5 -12.5,0 5,5 0,0 z"
         style="fill-rule:evenodd;stroke:#000000;stroke-width:1pt"
         transform="matrix(0.8,0,0,0.8,10,0)"
         inkscape:connector-curvature="0" />
    </marker>
  </defs>
  <sodipodi:namedview
     pagecolor="#ffffff"
     bordercolor="#666666"
     borderopacity="1"
     objecttolerance="10"
     gridtolerance="10"
     guidetolerance="10"
     inkscape:pageopacity="0"
     inkscape:pageshadow="2"
     inkscape:window-width="1366"
     inkscape:window-height="746"
     id="namedview2987"
     showgrid="false"
     inkscape:snap-to-guides="true"
     inkscape:snap-grids="false"
     inkscape:zoom="1.5234376"
     inkscape:cx="34.20014"
     inkscape:cy="143.83985"
     inkscape:window-x="0"
     inkscape:window-y="0"
     inkscape:window-maximized="1"
     inkscape:current-layer="svg2985" />
  <g
     id="g6133"
     style="fill:#b3b3b3;fill-opacity:1;stroke:#2196f3;stroke-opacity:1"
     transform="matrix(0.24486258,0.00427409,-0.00427409,0.24486258,274.18711,17.117753)">
    <path
       transform="matrix(0.42673716,-0.00744872,0.00744872,0.42673716,-1157.8361,-92.638882)"
       style="fill:#b3b3b3;stroke:none"
       d="m 2436.5947,1302.7078 c 0,638.0446 -517.2373,1155.2819 -1155.282,1155.2819 -638.04458,0 -1155.28194,-517.2373 -1155.28194,-1155.2819 0,-638.04466 517.23736,-1155.28202 1155.28194,-1155.28202 638.0447,0 1155.282,517.23736 1155.282,1155.28202 z"
       id="path4002" />
  </g>
  <path
     style="fill:#808080;fill-opacity:1;stroke:none"
     d="m 190.22211,73.468576 c 1.8774,2.3803 3.66,4.8552 5.3034,7.4853 14.6003,23.365204 16.1733,51.173354 6.6913,74.943074 l -12.3549,-5.99609 c 2.7653,-7.61574 4.1902,-15.70971 4.1833,-23.88549 0,-0.65407 -0.016,-1.31479 -0.035,-1.96969 -0.2389,-8.2797 -1.9893,-16.593 -5.2545,-24.575804 l -14.3263,-14.7524 c -0.05,-0.062 -0.1082,-0.1239 -0.1586,-0.1856 1.7103,2.1064 3.3185,4.3318 4.7944,6.6937 11.0328,17.656004 12.6888,38.480514 6.285,56.486474 l -56.078,-26.85217 c -4.6718,-2.173 -6.362,-1.7119 -7.3785,-1.0379 -1.0012,0.6637 -2.4631,1.1028 -2.5614,7.2633 l -0.4036,62.13164 c -7.1216,-0.80169 -14.0994,-2.8001 -20.623894,-5.90858 -0.2718,-0.1295 -0.5418,-0.25543 -0.8121,-0.38888 -5.0769,-2.50573 -9.852,-5.71611 -14.2053,-9.54932 0.358,0.31532 0.7028,0.64895 1.0666,0.95552 l 13.779,14.35457 c 5.725194,2.52412 11.747294,4.2681 17.893094,5.18172 0.3205,0.0482 0.6393,0.0824 0.9606,0.12553 0.6423,0.0864 1.297,0.16993 1.9415,0.23803 l -0.037,13.73937 c -13.5578,-1.00817 -26.769594,-5.32293 -38.367194,-12.64936 -0.3412,-0.21545 -0.6771,-0.42537 -1.0155,-0.64603 -2.0296,-1.32404 -4.0043,-2.7564 -5.9241,-4.26612 -0.32,-0.2516 -0.645,-0.50835 -0.9617,-0.76489 -1.5967,-1.29438 -3.1456,-2.65561 -4.654,-4.07801 0.1401,0.13206 0.2826,0.27314 0.4233,0.40416 l 57.623794,59.79253 c 0.1832,0 0.3589,0.0101 0.5423,0 55.0928,0.40222 119.8581,-48.83549 119.1152,-114.72232 l -53.8114,-55.558664 0.05,0.1253 c -0.543,-0.7369 -1.1211,-1.4348 -1.6843,-2.1489 z m -58.0551,63.865524 c 1.5246,-0.99212 2.542,-0.66101 9.2934,2.53079 l 49.5052,23.80237 -21.581,13.48533 13.2807,21.25371 -16.9866,10.61429 -13.2807,-21.25361 -21.5811,13.48542 0.085,-55.78635 c 0.01,-5.45637 -0.2599,-7.13983 1.2643,-8.13195 z"
     id="path5994"
     inkscape:connector-curvature="0"
     sodipodi:nodetypes="cscccccccccccccccccccccccccccccccccccccccccccccc" />
  <path
     inkscape:connector-curvature="0"
     style="fill:#ffffff;fill-opacity:1;stroke:none"
     d="m 80.930216,54.495676 c -38.9495,24.3384 -50.7948,75.646044 -26.4564,114.595714 14.6002,23.36506 38.905,36.97268 64.425894,38.87037 l 0.024,-13.73574 c -20.626694,-2.1841 -40.200994,-13.64378 -52.174494,-32.80526 -20.4634,-32.7485 -10.9741,-75.593484 21.1974,-95.696484 32.171594,-20.103 74.840194,-9.8501 95.303794,22.8985 11.9733,19.161504 13.6926,41.778394 6.6135,61.274884 l 12.3561,5.9998 c 9.4819,-23.76982 7.9061,-51.58018 -6.6941,-74.945284 -24.3384,-38.9496 -75.6461,-50.795 -114.595694,-26.4565 z"
     id="path3987-1" />
  <path
     style="fill:#ffffff;fill-opacity:1;stroke:none"
     d="m 90.605916,69.979976 c -29.8641,18.6612 -38.6741,58.430124 -19.6783,88.829914 11.0327,17.65597 29.0175,28.26474 48.008394,30.40242 l 0.3989,-62.12434 c 0.098,-6.16049 1.5557,-6.60399 2.5569,-7.26779 1.0166,-0.6738 2.711,-1.1337 7.3829,1.0393 l 56.0773,26.85146 c 6.4038,-18.00607 4.7529,-38.82126 -6.2799,-56.477364 -18.9957,-30.3996 -58.602,-39.9147 -88.466194,-21.2536 z"
     id="path3985-0"
     inkscape:connector-curvature="0" />
  <path
     style="fill:#ffffff;fill-opacity:1;stroke:none;enable-background:new"
     d="m 132.06361,137.79131 c -1.5243,0.99222 -1.2529,2.68052 -1.2615,8.1369 l -0.087,55.78797 21.5742,-13.48112 13.2792,21.25119 16.9955,-10.62002 -13.2791,-21.25108 21.5743,-13.48112 -49.512,-23.80741 c -6.7513,-3.19187 -7.7583,-3.52732 -9.2828,-2.53531 z"
     id="path3015-7-2-2"
     inkscape:connector-curvature="0" />
</svg>
