<?xml version="1.0" encoding="UTF-8" standalone="no"?>
<!-- Created with Inkscape (http://www.inkscape.org/) -->

<svg
   xmlns:osb="http://www.openswatchbook.org/uri/2009/osb"
   xmlns:dc="http://purl.org/dc/elements/1.1/"
   xmlns:cc="http://creativecommons.org/ns#"
   xmlns:rdf="http://www.w3.org/1999/02/22-rdf-syntax-ns#"
   xmlns:svg="http://www.w3.org/2000/svg"
   xmlns="http://www.w3.org/2000/svg"
   xmlns:sodipodi="http://sodipodi.sourceforge.net/DTD/sodipodi-0.dtd"
   xmlns:inkscape="http://www.inkscape.org/namespaces/inkscape"
   id="svg2985"
   version="1.1"
   inkscape:version="0.48.5 r10040"
   width="250"
   height="250"
   sodipodi:docname="clickeat_grey.svg"
   style="enable-background:new"
   inkscape:export-filename="/home/lfbarreto/Bureau/clickeatblue.svg.png"
   inkscape:export-xdpi="9.5060673"
   inkscape:export-ydpi="9.5060673">
  <metadata
     id="metadata2991">
    <rdf:RDF>
      <cc:Work
         rdf:about="">
        <dc:format>image/svg+xml</dc:format>
        <dc:type
           rdf:resource="http://purl.org/dc/dcmitype/StillImage" />
        <dc:title></dc:title>
      </cc:Work>
    </rdf:RDF>
  </metadata>
  <defs
     id="defs2989">
    <linearGradient
       id="linearGradient8596"
       osb:paint="gradient">
      <stop
         style="stop-color:#000000;stop-opacity:1;"
         offset="0"
         id="stop8598" />
      <stop
         style="stop-color:#000000;stop-opacity:0;"
         offset="1"
         id="stop8600" />
    </linearGradient>
    <marker
       inkscape:stockid="DotM"
       orient="auto"
       refY="0"
       refX="0"
       id="DotM"
       style="overflow:visible">
      <path
         id="path4043"
         d="m -2.5,-1 c 0,2.76 -2.24,5 -5,5 -2.76,0 -5,-2.24 -5,-5 0,-2.76 2.24,-5 5,-5 2.76,0 5,2.24 5,5 z"
         style="fill-rule:evenodd;stroke:#000000;stroke-width:1pt"
         transform="matrix(0.4,0,0,0.4,2.96,0.4)"
         inkscape:connector-curvature="0" />
    </marker>
    <marker
       style="overflow:visible"
       id="DistanceEnd"
       refX="0"
       refY="0"
       orient="auto"
       inkscape:stockid="DistanceEnd">
      <g
         id="g2301">
        <path
           style="fill:none;stroke:#ffffff;stroke-width:1.14999998;stroke-linecap:square"
           d="M 0,0 -2,0"
           id="path2316"
           inkscape:connector-curvature="0" />
        <path
           style="fill:#000000;fill-rule:evenodd;stroke:none"
           d="M 0,0 -13,4 -9,0 -13,-4 0,0 z"
           id="path2312"
           inkscape:connector-curvature="0" />
        <path
           style="fill:none;stroke:#000000;stroke-width:1;stroke-linecap:square"
           d="M 0,-4 0,40"
           id="path2314"
           inkscape:connector-curvature="0" />
      </g>
    </marker>
    <marker
       inkscape:stockid="Tail"
       orient="auto"
       refY="0"
       refX="0"
       id="Tail"
       style="overflow:visible">
      <g
         id="g4015"
         transform="scale(-1.2,-1.2)">
        <path
           id="path4017"
           d="M -3.8048674,-3.9585227 0.54352094,0"
           style="fill:none;stroke:#000000;stroke-width:0.80000001;stroke-linecap:round"
           inkscape:connector-curvature="0" />
        <path
           id="path4019"
           d="M -1.2866832,-3.9585227 3.0617053,0"
           style="fill:none;stroke:#000000;stroke-width:0.80000001;stroke-linecap:round"
           inkscape:connector-curvature="0" />
        <path
           id="path4021"
           d="M 1.3053582,-3.9585227 5.6537466,0"
           style="fill:none;stroke:#000000;stroke-width:0.80000001;stroke-linecap:round"
           inkscape:connector-curvature="0" />
        <path
           id="path4023"
           d="M -3.8048674,4.1775838 0.54352094,0.21974226"
           style="fill:none;stroke:#000000;stroke-width:0.80000001;stroke-linecap:round"
           inkscape:connector-curvature="0" />
        <path
           id="path4025"
           d="M -1.2866832,4.1775838 3.0617053,0.21974226"
           style="fill:none;stroke:#000000;stroke-width:0.80000001;stroke-linecap:round"
           inkscape:connector-curvature="0" />
        <path
           id="path4027"
           d="M 1.3053582,4.1775838 5.6537466,0.21974226"
           style="fill:none;stroke:#000000;stroke-width:0.80000001;stroke-linecap:round"
           inkscape:connector-curvature="0" />
      </g>
    </marker>
    <marker
       inkscape:stockid="Arrow1Lend"
       orient="auto"
       refY="0"
       refX="0"
       id="Arrow1Lend"
       style="overflow:visible">
      <path
         id="path3982"
         d="M 0,0 5,-5 -12.5,0 5,5 0,0 z"
         style="fill-rule:evenodd;stroke:#000000;stroke-width:1pt"
         transform="matrix(-0.8,0,0,-0.8,-10,0)"
         inkscape:connector-curvature="0" />
    </marker>
    <marker
       inkscape:stockid="Arrow1Lstart"
       orient="auto"
       refY="0"
       refX="0"
       id="Arrow1Lstart"
       style="overflow:visible">
      <path
         id="path3979"
         d="M 0,0 5,-5 -12.5,0 5,5 0,0 z"
         style="fill-rule:evenodd;stroke:#000000;stroke-width:1pt"
         transform="matrix(0.8,0,0,0.8,10,0)"
         inkscape:connector-curvature="0" />
    </marker>
  </defs>
  <sodipodi:namedview
     pagecolor="#ffffff"
     bordercolor="#666666"
     borderopacity="1"
     objecttolerance="10"
     gridtolerance="10"
     guidetolerance="10"
     inkscape:pageopacity="0"
     inkscape:pageshadow="2"
     inkscape:window-width="1366"
     inkscape:window-height="746"
     id="namedview2987"
     showgrid="false"
     inkscape:snap-to-guides="true"
     inkscape:snap-grids="false"
     inkscape:zoom="1.5234376"
     inkscape:cx="156.29244"
     inkscape:cy="167.98389"
     inkscape:window-x="0"
     inkscape:window-y="0"
     inkscape:window-maximized="1"
     inkscape:current-layer="svg2985" />
  <path
     style="fill:#2b0000;fill-opacity:1;stroke:#000000;stroke-width:0.25052318;stroke-linecap:round;stroke-linejoin:round;stroke-miterlimit:4;stroke-opacity:1"
     d="m 207.92421,118.50816 c 0.019,0.2426 0.032,0.4852 0.048,0.7279 l 0.3609,0.3737 -0.4093,-1.1017 z"
     id="path6126"
     inkscape:connector-curvature="0" />
  <path
     style="fill:#2b0000;fill-opacity:1;stroke:#000000;stroke-width:0.25052318;stroke-linecap:round;stroke-linejoin:round;stroke-miterlimit:4;stroke-opacity:1"
     d="m 207.92421,118.50816 0.4097,1.1015 -0.3609,-0.3736 c -0.016,-0.2428 -0.029,-0.4853 -0.048,-0.728 z"
     id="path6124"
     inkscape:connector-curvature="0" />
  <path
     style="fill:#2b0000;fill-opacity:1;stroke:#000000;stroke-width:0.25052318;stroke-linecap:round;stroke-linejoin:round;stroke-miterlimit:4;stroke-opacity:1"
     d="m 61.465813,178.66326 c 0.086,0.1022 0.1607,0.21645 0.247,0.31805 l -0.1138,-0.0553 0.5488,0.56848 c 0.1008,0.11667 0.2065,0.22618 0.3078,0.34204 -0.3358,-0.38425 -0.6601,-0.78148 -0.9898,-1.17308 z"
     id="path6122"
     inkscape:connector-curvature="0" />
  <path
     style="fill:#2b0000;fill-opacity:1;stroke:#000000;stroke-width:0.25052318;stroke-linecap:round;stroke-linejoin:round;stroke-miterlimit:4;stroke-opacity:1"
     d="m 57.654813,173.79746 c 0.096,0.13395 0.1861,0.27755 0.2837,0.41059 0.051,0.0693 0.1061,0.13274 0.1577,0.20137 -0.149,-0.20238 -0.2934,-0.40826 -0.4408,-0.61247 z"
     id="path6120"
     inkscape:connector-curvature="0" />
  <path
     style="fill:#2b0000;fill-opacity:1;stroke:#000000;stroke-width:0.25052318;stroke-linecap:round;stroke-linejoin:round;stroke-miterlimit:4;stroke-opacity:1"
     d="m 130.88621,42.07466 c -0.084,-0.01 -0.1676,-0.021 -0.252,-0.027 -1.5788,-0.1087 -3.1646,-0.1717 -4.7503,-0.19 1.671,0.019 3.339,0.098 5.0023,0.2175 z"
     id="path6118"
     inkscape:connector-curvature="0" />
  <path
     style="fill:#2b0000;fill-opacity:1;stroke:#000000;stroke-width:0.25052318;stroke-linecap:round;stroke-linejoin:round;stroke-miterlimit:4;stroke-opacity:1"
     d="m 135.72291,42.56486 c -0.1252,-0.015 -0.2488,-0.044 -0.3741,-0.06 -1.0775,-0.1359 -2.157,-0.2229 -3.24,-0.3168 1.2084,0.1043 2.4125,0.2198 3.614,0.377 z"
     id="path6116"
     inkscape:connector-curvature="0" />
  <path
     style="fill:#2b0000;fill-opacity:1;stroke:#000000;stroke-width:0.25052318;stroke-linecap:round;stroke-linejoin:round;stroke-miterlimit:4;stroke-opacity:1"
     d="m 140.60021,43.35416 c -0.189,-0.036 -0.3754,-0.081 -0.5644,-0.1169 -0.7336,-0.135 -1.4768,-0.2293 -2.2137,-0.3448 0.9274,0.1452 1.8562,0.2854 2.7781,0.4617 z"
     id="path6114"
     inkscape:connector-curvature="0" />
  <path
     style="fill:#2b0000;fill-opacity:1;stroke:#000000;stroke-width:0.25052318;stroke-linecap:round;stroke-linejoin:round;stroke-miterlimit:4;stroke-opacity:1"
     d="m 145.44161,44.43376 c -0.2601,-0.065 -0.5161,-0.1489 -0.7769,-0.2126 -0.6826,-0.1661 -1.3724,-0.2927 -2.0589,-0.4415 0.9478,0.2055 1.8959,0.4158 2.8358,0.6541 z"
     id="path6112"
     inkscape:connector-curvature="0" />
  <path
     style="fill:#2b0000;fill-opacity:1;stroke:#000000;stroke-width:0.25052318;stroke-linecap:round;stroke-linejoin:round;stroke-miterlimit:4;stroke-opacity:1"
     d="m 150.13341,45.77096 c -0.3009,-0.095 -0.5961,-0.207 -0.898,-0.2988 -0.5617,-0.1709 -1.1337,-0.307 -1.6986,-0.4661 0.8688,0.2445 1.7358,0.4923 2.5966,0.7649 z"
     id="path6110"
     inkscape:connector-curvature="0" />
  <path
     style="fill:#2b0000;fill-opacity:1;stroke:#000000;stroke-width:0.25052318;stroke-linecap:round;stroke-linejoin:round;stroke-miterlimit:4;stroke-opacity:1"
     d="m 154.79701,47.40626 c -0.3586,-0.1374 -0.7115,-0.292 -1.072,-0.4245 -0.4504,-0.1654 -0.909,-0.3023 -1.362,-0.46 0.8146,0.2835 1.628,0.5757 2.434,0.8845 z"
     id="path6108"
     inkscape:connector-curvature="0" />
  <path
     style="fill:#2b0000;fill-opacity:1;stroke:#000000;stroke-width:0.25052318;stroke-linecap:round;stroke-linejoin:round;stroke-miterlimit:4;stroke-opacity:1"
     d="m 159.43961,49.35486 c -0.4371,-0.1986 -0.8654,-0.4213 -1.3057,-0.6121 -0.4011,-0.1739 -0.8126,-0.3207 -1.2163,-0.4882 0.8474,0.3515 1.686,0.7206 2.522,1.1003 z"
     id="path6106"
     inkscape:connector-curvature="0" />
  <path
     style="fill:#2b0000;fill-opacity:1;stroke:#000000;stroke-width:0.25052318;stroke-linecap:round;stroke-linejoin:round;stroke-miterlimit:4;stroke-opacity:1"
     d="m 163.96281,51.57706 c -0.5081,-0.269 -1.0033,-0.5644 -1.5164,-0.8225 -0.3542,-0.1783 -0.7216,-0.328 -1.0781,-0.501 0.8724,0.4234 1.7359,0.8691 2.5945,1.3235 z"
     id="path6104"
     inkscape:connector-curvature="0" />
  <path
     style="fill:#2b0000;fill-opacity:1;stroke:#000000;stroke-width:0.25052318;stroke-linecap:round;stroke-linejoin:round;stroke-miterlimit:4;stroke-opacity:1"
     d="m 168.19961,53.98556 c -0.5218,-0.3168 -1.0321,-0.6563 -1.56,-0.9611 -0.2575,-0.1486 -0.5221,-0.2812 -0.781,-0.4269 0.7899,0.4447 1.5645,0.9167 2.341,1.388 z"
     id="path6102"
     inkscape:connector-curvature="0" />
  <path
     style="fill:#2b0000;fill-opacity:1;stroke:#000000;stroke-width:0.25052318;stroke-linecap:round;stroke-linejoin:round;stroke-miterlimit:4;stroke-opacity:1"
     d="m 172.33951,56.67566 c -0.5437,-0.3763 -1.0741,-0.776 -1.6258,-1.1383 -0.1887,-0.1241 -0.3859,-0.2322 -0.5755,-0.3545 0.7439,0.4801 1.4713,0.9876 2.2013,1.4928 z"
     id="path6100"
     inkscape:connector-curvature="0" />
  <path
     style="fill:#2b0000;fill-opacity:1;stroke:#000000;stroke-width:0.25052318;stroke-linecap:round;stroke-linejoin:round;stroke-miterlimit:4;stroke-opacity:1"
     d="m 176.56391,59.79576 c -0.6366,-0.503 -1.2612,-1.0203 -1.9104,-1.503 -0.1167,-0.087 -0.2382,-0.1649 -0.3554,-0.2511 0.7672,0.5642 1.516,1.1616 2.2658,1.7541 z"
     id="path6098"
     inkscape:connector-curvature="0" />
  <path
     style="fill:#2b0000;fill-opacity:1;stroke:#000000;stroke-width:0.25052318;stroke-linecap:round;stroke-linejoin:round;stroke-miterlimit:4;stroke-opacity:1"
     d="m 180.53151,63.14106 c -0.693,-0.6225 -1.3768,-1.2618 -2.0878,-1.8582 -0.078,-0.066 -0.1628,-0.1223 -0.2415,-0.1879 0.7923,0.6595 1.559,1.3542 2.3293,2.0461 z"
     id="path6096"
     inkscape:connector-curvature="0" />
  <path
     style="fill:#2b0000;fill-opacity:1;stroke:#000000;stroke-width:0.25052318;stroke-linecap:round;stroke-linejoin:round;stroke-miterlimit:4;stroke-opacity:1"
     d="m 188.99721,71.91526 c -0.061,-0.073 -0.1184,-0.1518 -0.1799,-0.2252 -0.6996,-0.8391 -1.4345,-1.6353 -2.1618,-2.4411 0.7903,0.8754 1.5842,1.7515 2.3415,2.6664 z"
     id="path6094"
     inkscape:connector-curvature="0" />
  <path
     style="fill:#2b0000;fill-opacity:1;stroke:#000000;stroke-width:0.25052318;stroke-linecap:round;stroke-linejoin:round;stroke-miterlimit:4;stroke-opacity:1"
     d="m 79.523713,169.80859 c 0.7454,0.77004 1.5032,1.5244 2.2799,2.25182 0.2041,0.19104 0.4196,0.36639 0.6257,0.5544 -0.9898,-0.90308 -1.9651,-1.83521 -2.9056,-2.80622 z"
     id="path6092"
     inkscape:connector-curvature="0" />
  <path
     style="fill:#2b0000;fill-opacity:1;stroke:#000000;stroke-width:0.25052318;stroke-linecap:round;stroke-linejoin:round;stroke-miterlimit:4;stroke-opacity:1"
     d="m 76.632713,166.61219 c 0.1296,0.15266 0.2514,0.31464 0.382,0.46595 0.76,0.87948 1.5376,1.73595 2.3359,2.56658 0.051,0.0533 0.1062,0.10257 0.1579,0.15587 -0.9913,-1.02401 -1.9437,-2.08998 -2.8758,-3.1884 z"
     id="path6090"
     inkscape:connector-curvature="0" />
  <path
     style="fill:#2b0000;fill-opacity:1;stroke:#000000;stroke-width:0.25052318;stroke-linecap:round;stroke-linejoin:round;stroke-miterlimit:4;stroke-opacity:1"
     d="m 73.966613,163.23622 c 0.2343,0.31481 0.4566,0.64343 0.6953,0.95354 -0.01,0.0101 -0.016,0.0101 -0.024,0.0131 l 0.1505,0.15577 0.011,0.0101 c 0.406,0.52333 0.8324,1.02157 1.2515,1.52962 -0.7131,-0.8643 -1.4068,-1.75311 -2.0814,-2.66171 z"
     id="path6088"
     inkscape:connector-curvature="0" />
  <path
     style="fill:#2b0000;fill-opacity:1;stroke:#000000;stroke-width:0.25052318;stroke-linecap:round;stroke-linejoin:round;stroke-miterlimit:4;stroke-opacity:1"
     d="m 70.928513,158.82009 c 0.5838,0.93483 1.1892,1.84626 1.812,2.74119 0.1651,0.23735 0.3406,0.46337 0.5083,0.6977 -0.7992,-1.11832 -1.5817,-2.25663 -2.3203,-3.43889 z"
     id="path6086"
     inkscape:connector-curvature="0" />
  <path
     style="fill:#2b0000;fill-opacity:1;stroke:#000000;stroke-width:0.25052318;stroke-linecap:round;stroke-linejoin:round;stroke-miterlimit:4;stroke-opacity:1"
     d="m 68.907313,155.33257 c 0.1119,0.20137 0.2062,0.40897 0.3184,0.61038 0.029,0.0492 0.062,0.0964 0.09,0.14711 -0.1397,-0.25194 -0.2705,-0.50485 -0.4078,-0.75739 z"
     id="path6084"
     inkscape:connector-curvature="0" />
  <path
     style="fill:#2b0000;fill-opacity:1;stroke:#000000;stroke-width:0.25052318;stroke-linecap:round;stroke-linejoin:round;stroke-miterlimit:4;stroke-opacity:1"
     d="m 67.441613,152.47501 c 0.087,0.17925 0.1624,0.36154 0.2508,0.54023 0.027,0.0573 0.061,0.11284 0.089,0.1699 -0.1172,-0.23544 -0.2256,-0.47398 -0.3398,-0.71023 z"
     id="path6082"
     inkscape:connector-curvature="0" />
  <path
     style="fill:#2b0000;fill-opacity:1;stroke:#000000;stroke-width:0.25052318;stroke-linecap:round;stroke-linejoin:round;stroke-miterlimit:4;stroke-opacity:1"
     d="m 66.056113,149.41215 c 0.088,0.21022 0.1657,0.42253 0.2568,0.63205 0.06,0.13759 0.1311,0.27193 0.192,0.40901 -0.1534,-0.347 -0.3016,-0.69269 -0.4487,-1.04116 z"
     id="path6080"
     inkscape:connector-curvature="0" />
  <path
     style="fill:#2b0000;fill-opacity:1;stroke:#000000;stroke-width:0.25052318;stroke-linecap:round;stroke-linejoin:round;stroke-miterlimit:4;stroke-opacity:1"
     d="m 64.868813,146.39853 c 0.077,0.21322 0.1468,0.42618 0.2261,0.6393 0.069,0.18046 0.1502,0.35895 0.2202,0.53962 -0.1519,-0.39241 -0.3029,-0.78482 -0.4463,-1.17892 z"
     id="path6078"
     inkscape:connector-curvature="0" />
  <path
     style="fill:#2b0000;fill-opacity:1;stroke:#000000;stroke-width:0.25052318;stroke-linecap:round;stroke-linejoin:round;stroke-miterlimit:4;stroke-opacity:1"
     d="m 63.929613,143.62658 c 0.038,0.12509 0.068,0.25223 0.1082,0.37702 0.073,0.23033 0.1656,0.45523 0.2405,0.68552 -0.1178,-0.3538 -0.2371,-0.70764 -0.3487,-1.06254 z"
     id="path6076"
     inkscape:connector-curvature="0" />
  <path
     style="fill:#2b0000;fill-opacity:1;stroke:#000000;stroke-width:0.25052318;stroke-linecap:round;stroke-linejoin:round;stroke-miterlimit:4;stroke-opacity:1"
     d="m 63.084813,140.72621 c 0.019,0.0683 0.031,0.13845 0.05,0.2076 0.044,0.1646 0.1,0.32791 0.1446,0.49238 -0.064,-0.23342 -0.1327,-0.46626 -0.1944,-0.69998 z"
     id="path6074"
     inkscape:connector-curvature="0" />
  <path
     style="fill:#2b0000;fill-opacity:1;stroke:#000000;stroke-width:0.25052318;stroke-linecap:round;stroke-linejoin:round;stroke-miterlimit:4;stroke-opacity:1"
     d="m 61.393313,131.94782 c 0.1136,0.93173 0.2406,1.86352 0.3952,2.79296 0.1284,0.77 0.2859,1.53635 0.442,2.30406 -0.3446,-1.69352 -0.6295,-3.39468 -0.837,-5.09702 z"
     id="path6072"
     inkscape:connector-curvature="0" />
  <path
     style="fill:#2b0000;fill-opacity:1;stroke:#000000;stroke-width:0.25052318;stroke-linecap:round;stroke-linejoin:round;stroke-miterlimit:4;stroke-opacity:1"
     d="m 60.984713,126.85824 c 0.024,0.54924 0.041,1.09761 0.078,1.64706 0.071,1.03996 0.1606,2.08081 0.2821,3.12026 0.011,0.0945 0.029,0.18923 0.041,0.28385 -0.2045,-1.68285 -0.3292,-3.36771 -0.4017,-5.05117 z"
     id="path6070"
     inkscape:connector-curvature="0" />
  <path
     style="fill:#2b0000;fill-opacity:1;stroke:#000000;stroke-width:0.25052318;stroke-linecap:round;stroke-linejoin:round;stroke-miterlimit:4;stroke-opacity:1"
     d="m 60.983913,121.20166 c -0.016,0.3575 -0.039,0.7128 -0.049,1.0709 -0.029,1.0356 -0.036,2.0761 -0.016,3.11493 0.01,0.22478 0.027,0.44937 0.034,0.67417 -0.05,-1.6238 -0.039,-3.244 0.031,-4.86 z"
     id="path6068"
     inkscape:connector-curvature="0" />
  <path
     style="fill:#2b0000;fill-opacity:1;stroke:#000000;stroke-width:0.25052318;stroke-linecap:round;stroke-linejoin:round;stroke-miterlimit:4;stroke-opacity:1"
     d="m 61.464613,115.59186 c -0.021,0.1657 -0.049,0.3305 -0.07,0.4964 -0.1261,1.0238 -0.2289,2.0561 -0.3064,3.087 -0.031,0.4198 -0.036,0.841 -0.06,1.2618 0.09,-1.6225 0.2259,-3.239 0.4367,-4.8452 z"
     id="path6066"
     inkscape:connector-curvature="0" />
  <path
     style="fill:#2b0000;fill-opacity:1;stroke:#000000;stroke-width:0.25052318;stroke-linecap:round;stroke-linejoin:round;stroke-miterlimit:4;stroke-opacity:1"
     d="m 62.466913,109.90686 c -0.011,0.03 -0.018,0.06 -0.025,0.091 -0.2225,1.0046 -0.4216,2.0129 -0.5962,3.0283 -0.1048,0.6075 -0.1821,1.2214 -0.2693,1.8322 0.2373,-1.662 0.5253,-3.3165 0.8901,-4.9521 z"
     id="path6064"
     inkscape:connector-curvature="0" />
  <path
     style="fill:#2b0000;fill-opacity:1;stroke:#000000;stroke-width:0.25052318;stroke-linecap:round;stroke-linejoin:round;stroke-miterlimit:4;stroke-opacity:1"
     d="m 63.752713,105.09186 c -0.1945,0.6362 -0.3944,1.2692 -0.5692,1.9113 -0.2617,0.9619 -0.4994,1.9302 -0.7166,2.9037 0.3618,-1.6224 0.8004,-3.2265 1.2858,-4.815 z"
     id="path6062"
     inkscape:connector-curvature="0" />
  <path
     style="fill:#2b0000;fill-opacity:1;stroke:#000000;stroke-width:0.25052318;stroke-linecap:round;stroke-linejoin:round;stroke-miterlimit:4;stroke-opacity:1"
     d="m 65.604613,99.85806 c -0.1719,0.4264 -0.3573,0.8467 -0.5198,1.2767 -0.3638,0.962 -0.706,1.9356 -1.023,2.9138 -0.035,0.106 -0.063,0.2136 -0.097,0.3198 0.4854,-1.5246 1.042,-3.0254 1.6403,-4.5103 z"
     id="path6060"
     inkscape:connector-curvature="0" />
  <path
     style="fill:#2b0000;fill-opacity:1;stroke:#000000;stroke-width:0.25052318;stroke-linecap:round;stroke-linejoin:round;stroke-miterlimit:4;stroke-opacity:1"
     d="m 67.849613,94.89886 c -0.098,0.1936 -0.205,0.382 -0.301,0.5766 -0.4559,0.9242 -0.8941,1.8576 -1.3042,2.8016 -0.1188,0.2737 -0.2209,0.5533 -0.3358,0.8285 0.5949,-1.4238 1.243,-2.8273 1.941,-4.2067 z"
     id="path6058"
     inkscape:connector-curvature="0" />
  <path
     style="fill:#2b0000;fill-opacity:1;stroke:#000000;stroke-width:0.25052318;stroke-linecap:round;stroke-linejoin:round;stroke-miterlimit:4;stroke-opacity:1"
     d="m 70.717013,89.80536 c -0.054,0.086 -0.1116,0.1709 -0.1652,0.2573 -0.5464,0.8789 -1.0685,1.7721 -1.5698,2.6745 -0.2072,0.3729 -0.3945,0.7537 -0.5939,1.1302 0.7289,-1.3773 1.4969,-2.738 2.3289,-4.062 z"
     id="path6056"
     inkscape:connector-curvature="0" />
  <path
     style="fill:#2b0000;fill-opacity:1;stroke:#000000;stroke-width:0.25052318;stroke-linecap:round;stroke-linejoin:round;stroke-miterlimit:4;stroke-opacity:1"
     d="m 76.486013,82.04506 c -0.1351,0.1556 -0.2804,0.3031 -0.4137,0.4597 -0.046,0.053 -0.087,0.1118 -0.133,0.1662 0.1786,-0.2112 0.3651,-0.4169 0.5467,-0.6259 z"
     id="path6054"
     inkscape:connector-curvature="0" />
  <path
     style="fill:#2b0000;fill-opacity:1;stroke:#000000;stroke-width:0.25052318;stroke-linecap:round;stroke-linejoin:round;stroke-miterlimit:4;stroke-opacity:1"
     d="m 78.530613,79.79976 c -0.117,0.1221 -0.2425,0.2384 -0.3584,0.3611 -0.062,0.066 -0.1176,0.1374 -0.1795,0.2035 0.1773,-0.1895 0.358,-0.377 0.5379,-0.5646 z"
     id="path6052"
     inkscape:connector-curvature="0" />
  <path
     style="fill:#2b0000;fill-opacity:1;stroke:#000000;stroke-width:0.25052318;stroke-linecap:round;stroke-linejoin:round;stroke-miterlimit:4;stroke-opacity:1"
     d="m 80.742613,77.61106 c -0.1088,0.1025 -0.2263,0.1969 -0.3344,0.3003 -0.082,0.079 -0.1595,0.1615 -0.2414,0.2406 0.1889,-0.1828 0.3845,-0.3603 0.5758,-0.5409 z"
     id="path6050"
     inkscape:connector-curvature="0" />
  <path
     style="fill:#2b0000;fill-opacity:1;stroke:#000000;stroke-width:0.25052318;stroke-linecap:round;stroke-linejoin:round;stroke-miterlimit:4;stroke-opacity:1"
     d="m 86.149513,73.05916 c -0.2978,0.2236 -0.6067,0.4376 -0.8995,0.6656 -0.8502,0.6619 -1.6771,1.3401 -2.485,2.0385 1.0854,-0.9382 2.2231,-1.8324 3.3845,-2.7041 z"
     id="path6048"
     inkscape:connector-curvature="0" />
  <path
     style="fill:#2b0000;fill-opacity:1;stroke:#000000;stroke-width:0.25052318;stroke-linecap:round;stroke-linejoin:round;stroke-miterlimit:4;stroke-opacity:1"
     d="m 90.604513,69.98336 c -0.9335,0.5831 -1.8494,1.1888 -2.7413,1.8122 -0.3102,0.2169 -0.6021,0.4515 -0.9073,0.6731 1.1838,-0.8593 2.3898,-1.6987 3.6486,-2.4853 z"
     id="path6046"
     inkscape:connector-curvature="0" />
  <path
     style="fill:#2b0000;fill-opacity:1;stroke:#000000;stroke-width:0.25052318;stroke-linecap:round;stroke-linejoin:round;stroke-miterlimit:4;stroke-opacity:1"
     d="m 95.713513,67.14866 c -0.3396,0.1711 -0.689,0.3096 -1.0267,0.4873 -0.1065,0.055 -0.2108,0.1213 -0.3168,0.1784 0.4429,-0.2361 0.8973,-0.4408 1.3436,-0.6654 z"
     id="path6044"
     inkscape:connector-curvature="0" />
  <path
     style="fill:#2b0000;fill-opacity:1;stroke:#000000;stroke-width:0.25052318;stroke-linecap:round;stroke-linejoin:round;stroke-miterlimit:4;stroke-opacity:1"
     d="m 99.702813,65.30466 c -0.2766,0.1155 -0.557,0.2097 -0.8323,0.3301 -0.1748,0.076 -0.3431,0.1736 -0.5171,0.2513 0.4488,-0.2003 0.8977,-0.3921 1.3495,-0.5811 z"
     id="path6042"
     inkscape:connector-curvature="0" />
  <path
     style="fill:#2b0000;fill-opacity:1;stroke:#000000;stroke-width:0.25052318;stroke-linecap:round;stroke-linejoin:round;stroke-miterlimit:4;stroke-opacity:1"
     d="m 103.78661,63.75326 c -0.2163,0.074 -0.438,0.1269 -0.654,0.2031 -0.2649,0.091 -0.5224,0.2115 -0.786,0.3079 0.4791,-0.1744 0.9584,-0.3488 1.4401,-0.5106 z"
     id="path6040"
     inkscape:connector-curvature="0" />
  <path
     style="fill:#2b0000;fill-opacity:1;stroke:#000000;stroke-width:0.25052318;stroke-linecap:round;stroke-linejoin:round;stroke-miterlimit:4;stroke-opacity:1"
     d="m 107.87271,62.51576 c -0.1327,0.035 -0.2671,0.057 -0.3997,0.092 -0.3045,0.082 -0.6044,0.1954 -0.908,0.2829 0.4355,-0.1249 0.8707,-0.2599 1.3078,-0.3752 z"
     id="path6038"
     inkscape:connector-curvature="0" />
  <path
     style="fill:#2b0000;fill-opacity:1;stroke:#000000;stroke-width:0.25052318;stroke-linecap:round;stroke-linejoin:round;stroke-miterlimit:4;stroke-opacity:1"
     d="m 112.02261,61.56236 c -0.053,0.01 -0.1076,0.015 -0.1612,0.029 -0.2935,0.057 -0.583,0.1454 -0.8762,0.2068 0.3473,-0.073 0.6897,-0.1678 1.0375,-0.2345 z"
     id="path6036"
     inkscape:connector-curvature="0" />
  <path
     style="fill:#2b0000;fill-opacity:1;stroke:#000000;stroke-width:0.25052318;stroke-linecap:round;stroke-linejoin:round;stroke-miterlimit:4;stroke-opacity:1"
     d="m 117.21001,60.81106 c -0.3087,0.033 -0.6191,0.045 -0.9276,0.083 -0.069,0.01 -0.1374,0.028 -0.2069,0.036 0.3776,-0.047 0.7568,-0.077 1.1347,-0.1179 z"
     id="path6034"
     inkscape:connector-curvature="0" />
  <path
     style="fill:#2b0000;fill-opacity:1;stroke:#000000;stroke-width:0.25052318;stroke-linecap:round;stroke-linejoin:round;stroke-miterlimit:4;stroke-opacity:1"
     d="m 128.94731,60.63316 c -0.097,-0.012 -0.1935,-0.021 -0.2906,-0.028 -1.1594,-0.086 -2.3237,-0.1376 -3.4874,-0.1603 1.2628,0.022 2.5202,0.088 3.778,0.1884 z"
     id="path6032"
     inkscape:connector-curvature="0" />
  <path
     style="fill:#2b0000;fill-opacity:1;stroke:#000000;stroke-width:0.25052318;stroke-linecap:round;stroke-linejoin:round;stroke-miterlimit:4;stroke-opacity:1"
     d="m 132.55311,61.03286 c -0.1431,-0.019 -0.2843,-0.05 -0.4274,-0.068 -0.6829,-0.089 -1.3698,-0.1455 -2.0555,-0.212 0.8277,0.079 1.6591,0.1684 2.4829,0.2807 z"
     id="path6030"
     inkscape:connector-curvature="0" />
  <path
     style="fill:#2b0000;fill-opacity:1;stroke:#000000;stroke-width:0.25052318;stroke-linecap:round;stroke-linejoin:round;stroke-miterlimit:4;stroke-opacity:1"
     d="m 136.29261,61.66446 c -0.2426,-0.047 -0.4813,-0.1129 -0.7244,-0.1579 -0.4512,-0.083 -0.9059,-0.1414 -1.3588,-0.215 0.6965,0.1134 1.3909,0.2369 2.0832,0.3729 z"
     id="path6028"
     inkscape:connector-curvature="0" />
  <path
     style="fill:#2b0000;fill-opacity:1;stroke:#000000;stroke-width:0.25052318;stroke-linecap:round;stroke-linejoin:round;stroke-miterlimit:4;stroke-opacity:1"
     d="m 139.92941,62.48586 c -0.3178,-0.081 -0.6335,-0.1769 -0.9524,-0.2539 -0.3769,-0.09 -0.7579,-0.1576 -1.1361,-0.2418 0.6991,0.1555 1.3943,0.317 2.0885,0.4957 z"
     id="path6026"
     inkscape:connector-curvature="0" />
  <path
     style="fill:#2b0000;fill-opacity:1;stroke:#000000;stroke-width:0.25052318;stroke-linecap:round;stroke-linejoin:round;stroke-miterlimit:4;stroke-opacity:1"
     d="m 143.51651,63.52066 c -0.3893,-0.1246 -0.7733,-0.2631 -1.1645,-0.3801 -0.272,-0.081 -0.5499,-0.1433 -0.8229,-0.2211 0.6651,0.1895 1.3283,0.3904 1.9874,0.6012 z"
     id="path6024"
     inkscape:connector-curvature="0" />
  <path
     style="fill:#2b0000;fill-opacity:1;stroke:#000000;stroke-width:0.25052318;stroke-linecap:round;stroke-linejoin:round;stroke-miterlimit:4;stroke-opacity:1"
     d="m 147.00061,64.75246 c -0.4447,-0.1707 -0.8823,-0.36 -1.3304,-0.5207 -0.1689,-0.06 -0.3404,-0.1104 -0.5098,-0.1696 0.6179,0.2159 1.2284,0.4556 1.8402,0.6903 z"
     id="path6022"
     inkscape:connector-curvature="0" />
  <path
     style="fill:#2b0000;fill-opacity:1;stroke:#000000;stroke-width:0.25052318;stroke-linecap:round;stroke-linejoin:round;stroke-miterlimit:4;stroke-opacity:1"
     d="m 150.86071,66.37376 c -0.6402,-0.2942 -1.2809,-0.5952 -1.9291,-0.868 -0.077,-0.034 -0.1581,-0.056 -0.2356,-0.088 0.7285,0.3031 1.4464,0.6261 2.1647,0.9562 z"
     id="path6020"
     inkscape:connector-curvature="0" />
  <path
     style="fill:#2b0000;fill-opacity:1;stroke:#000000;stroke-width:0.25052318;stroke-linecap:round;stroke-linejoin:round;stroke-miterlimit:4;stroke-opacity:1"
     d="m 155.37531,68.64916 c -0.039,-0.021 -0.074,-0.048 -0.1135,-0.071 -1.0292,-0.5709 -2.0706,-1.1113 -3.1254,-1.6238 -0.035,-0.016 -0.071,-0.031 -0.1062,-0.047 1.1279,0.5456 2.2465,1.1302 3.345,1.7423 z"
     id="path6018"
     inkscape:connector-curvature="0" />
  <path
     style="fill:#2b0000;fill-opacity:1;stroke:#000000;stroke-width:0.25052318;stroke-linecap:round;stroke-linejoin:round;stroke-miterlimit:4;stroke-opacity:1"
     d="m 158.64021,70.59696 c -0.1119,-0.071 -0.2205,-0.1496 -0.3329,-0.2202 -0.7098,-0.4459 -1.4348,-0.8609 -2.1591,-1.2777 0.839,0.4828 1.6727,0.9763 2.492,1.4979 z"
     id="path6016"
     inkscape:connector-curvature="0" />
  <path
     style="fill:#2b0000;fill-opacity:1;stroke:#000000;stroke-width:0.25052318;stroke-linecap:round;stroke-linejoin:round;stroke-miterlimit:4;stroke-opacity:1"
     d="m 161.79451,72.74926 c -0.1789,-0.1293 -0.3485,-0.2722 -0.5288,-0.3996 -0.4909,-0.3472 -0.9991,-0.6658 -1.4982,-0.9982 0.6827,0.4545 1.3597,0.9159 2.027,1.3978 z"
     id="path6014"
     inkscape:connector-curvature="0" />
  <path
     style="fill:#2b0000;fill-opacity:1;stroke:#000000;stroke-width:0.25052318;stroke-linecap:round;stroke-linejoin:round;stroke-miterlimit:4;stroke-opacity:1"
     d="m 164.83081,75.08316 c -0.2385,-0.1946 -0.4684,-0.4032 -0.7091,-0.594 -0.371,-0.2944 -0.7569,-0.5611 -1.1333,-0.8464 0.6203,0.47 1.237,0.9466 1.8424,1.4404 z"
     id="path6012"
     inkscape:connector-curvature="0" />
  <path
     style="fill:#2b0000;fill-opacity:1;stroke:#000000;stroke-width:0.25052318;stroke-linecap:round;stroke-linejoin:round;stroke-miterlimit:4;stroke-opacity:1"
     d="m 167.72621,77.59836 c -0.2856,-0.2623 -0.5615,-0.5388 -0.8511,-0.7955 -0.2544,-0.2256 -0.5195,-0.4353 -0.7769,-0.6566 0.5509,0.4731 1.0909,0.9589 1.628,1.4521 z"
     id="path6010"
     inkscape:connector-curvature="0" />
  <path
     style="fill:#2b0000;fill-opacity:1;stroke:#000000;stroke-width:0.25052318;stroke-linecap:round;stroke-linejoin:round;stroke-miterlimit:4;stroke-opacity:1"
     d="m 170.59361,80.40406 c -0.3604,-0.3744 -0.7071,-0.7642 -1.0751,-1.1287 -0.1866,-0.1852 -0.3834,-0.3555 -0.5722,-0.5381 0.5601,0.5415 1.104,1.1025 1.6473,1.6668 z"
     id="path6008"
     inkscape:connector-curvature="0" />
  <path
     style="fill:#2b0000;fill-opacity:1;stroke:#000000;stroke-width:0.25052318;stroke-linecap:round;stroke-linejoin:round;stroke-miterlimit:4;stroke-opacity:1"
     d="m 173.33441,83.43706 c -0.4315,-0.5084 -0.8531,-1.0305 -1.2976,-1.5229 -0.111,-0.1224 -0.2268,-0.2366 -0.3382,-0.358 0.5593,0.6102 1.0966,1.2459 1.6358,1.8809 z"
     id="path6006"
     inkscape:connector-curvature="0" />
  <path
     style="fill:#2b0000;fill-opacity:1;stroke:#000000;stroke-width:0.25052318;stroke-linecap:round;stroke-linejoin:round;stroke-miterlimit:4;stroke-opacity:1"
     d="m 125.17981,55.45446 c 1.2678,0.022 2.5301,0.1015 3.7931,0.1964 -0.1582,-0.013 -0.3154,-0.036 -0.4737,-0.047 -1.1057,-0.075 -2.2103,-0.1277 -3.3194,-0.15 z"
     id="path6004"
     inkscape:connector-curvature="0" />
  <path
     style="fill:#2b0000;fill-opacity:1;stroke:#000000;stroke-width:0.25052318;stroke-linecap:round;stroke-linejoin:round;stroke-miterlimit:4;stroke-opacity:1"
     d="m 111.08251,56.65506 c 1.4357,-0.2744 2.8703,-0.5023 4.3135,-0.6834 -1.1764,0.1473 -2.3508,0.3188 -3.5224,0.528 -0.2643,0.047 -0.5273,0.1043 -0.7912,0.1543 z"
     id="path6002"
     inkscape:connector-curvature="0" />
  <path
     style="fill:#2b0000;fill-opacity:1;stroke:#000000;stroke-width:0.25052318;stroke-linecap:round;stroke-linejoin:round;stroke-miterlimit:4;stroke-opacity:1"
     d="m 106.41791,57.72166 c 1.4076,-0.3745 2.8222,-0.7088 4.2424,-0.9899 -0.1458,0.03 -0.2917,0.055 -0.4377,0.084 -1.2729,0.2601 -2.5422,0.5699 -3.8048,0.9056 z"
     id="path6000"
     inkscape:connector-curvature="0" />
  <path
     style="fill:#2b0000;fill-opacity:1;stroke:#000000;stroke-width:0.25052318;stroke-linecap:round;stroke-linejoin:round;stroke-miterlimit:4;stroke-opacity:1"
     d="m 56.036813,120.90116 c 0.031,-0.7284 0.06,-1.4537 0.1142,-2.1796 -0.041,0.5552 -0.076,1.1102 -0.1053,1.6668 -0.013,0.1704 -0.01,0.342 -0.01,0.5128 z"
     id="path5998"
     inkscape:connector-curvature="0" />
  <g
     id="g6133"
     style="fill:#b3b3b3;fill-opacity:1;stroke:#2196f3;stroke-opacity:1"
     transform="matrix(0.24486258,0.00427409,-0.00427409,0.24486258,274.18711,16.45416)">
    <path
       sodipodi:type="arc"
       style="fill:#b3b3b3;fill-opacity:1;stroke:none"
       id="path4002"
       sodipodi:cx="1281.3127"
       sodipodi:cy="1302.7078"
       sodipodi:rx="1155.282"
       sodipodi:ry="1155.282"
       d="m 2436.5947,1302.7078 c 0,638.0446 -517.2373,1155.2819 -1155.282,1155.2819 -638.04458,0 -1155.28194,-517.2373 -1155.28194,-1155.2819 0,-638.04466 517.23736,-1155.28202 1155.28194,-1155.28202 638.0447,0 1155.282,517.23736 1155.282,1155.28202 z"
       transform="matrix(0.42673716,-0.00744872,0.00744872,0.42673716,-1157.8361,-92.638882)" />
  </g>
  <path
     style="fill:#808080;fill-opacity:1;stroke:none"
     d="m 190.22211,73.47576 c 1.8774,2.3803 3.66,4.8552 5.3034,7.4853 14.6003,23.3652 16.1733,51.17335 6.6913,74.94307 l -12.3549,-5.99609 c 2.7653,-7.61574 4.1902,-15.70971 4.1833,-23.88549 0,-0.65407 -0.016,-1.31479 -0.035,-1.96969 -0.2389,-8.2797 -1.9893,-16.593 -5.2545,-24.5758 l -14.3263,-14.7524 c -0.05,-0.062 -0.1082,-0.1239 -0.1586,-0.1856 1.7103,2.1064 3.3185,4.3318 4.7944,6.6937 11.0328,17.656 12.6888,38.48051 6.285,56.48647 l -56.078,-26.85217 c -4.6718,-2.173 -6.362,-1.7119 -7.3785,-1.0379 -1.0012,0.6637 -2.4631,1.1028 -2.5614,7.2633 l -0.4036,62.13164 c -7.1216,-0.80169 -14.0994,-2.8001 -20.623897,-5.90858 -0.2718,-0.1295 -0.5418,-0.25543 -0.8121,-0.38888 -5.0769,-2.50573 -9.852,-5.71611 -14.2053,-9.54932 0.358,0.31532 0.7028,0.64895 1.0666,0.95552 l 13.779,14.35457 c 5.725197,2.52412 11.747297,4.2681 17.893097,5.18172 0.3205,0.0482 0.6393,0.0824 0.9606,0.12553 0.6423,0.0864 1.297,0.16993 1.9415,0.23803 l -0.037,13.73937 c -13.5578,-1.00817 -26.769597,-5.32293 -38.367197,-12.64936 -0.3412,-0.21545 -0.6771,-0.42537 -1.0155,-0.64603 -2.0296,-1.32404 -4.0043,-2.7564 -5.9241,-4.26612 -0.32,-0.2516 -0.645,-0.50835 -0.9617,-0.76489 -1.5967,-1.29438 -3.1456,-2.65561 -4.654,-4.07801 0.1401,0.13206 0.2826,0.27314 0.4233,0.40416 l 57.623797,59.79253 c 0.1832,0 0.3589,0.0101 0.5423,0 55.0928,0.40222 119.8581,-48.83549 119.1152,-114.72232 l -53.8114,-55.55866 0.05,0.1253 c -0.543,-0.7369 -1.1211,-1.4348 -1.6843,-2.1489 z m -58.0551,63.86552 c 1.5246,-0.99212 2.542,-0.66101 9.2934,2.53079 l 49.5052,23.80237 -21.581,13.48533 13.2807,21.25371 -16.9866,10.61429 -13.2807,-21.25361 -21.5811,13.48542 0.085,-55.78635 c 0.01,-5.45637 -0.2599,-7.13983 1.2643,-8.13195 z"
     id="path5994"
     inkscape:connector-curvature="0"
     sodipodi:nodetypes="cscccccccccccccccccccccccccccccccccccccccccccccc" />
  <path
     inkscape:connector-curvature="0"
     style="fill:#ffffff;fill-opacity:1;stroke:none"
     d="m 80.930213,54.50286 c -38.9495,24.3384 -50.7948,75.64604 -26.4564,114.59571 14.6002,23.36506 38.905,36.97268 64.425897,38.87037 l 0.024,-13.73574 c -20.626697,-2.1841 -40.200997,-13.64378 -52.174497,-32.80526 -20.4634,-32.7485 -10.9741,-75.59348 21.1974,-95.69648 32.171597,-20.103 74.840197,-9.8501 95.303797,22.8985 11.9733,19.1615 13.6926,41.77839 6.6135,61.27488 l 12.3561,5.9998 c 9.4819,-23.76982 7.9061,-51.58018 -6.6941,-74.94528 -24.3384,-38.9496 -75.6461,-50.795 -114.595697,-26.4565 z"
     id="path3987-1" />
  <path
     style="fill:#ffffff;fill-opacity:1;stroke:none"
     d="m 90.605913,69.98716 c -29.8641,18.6612 -38.6741,58.43012 -19.6783,88.82991 11.0327,17.65597 29.0175,28.26474 48.008397,30.40242 l 0.3989,-62.12434 c 0.098,-6.16049 1.5557,-6.60399 2.5569,-7.26779 1.0166,-0.6738 2.711,-1.1337 7.3829,1.0393 l 56.0773,26.85146 c 6.4038,-18.00607 4.7529,-38.82126 -6.2799,-56.47736 -18.9957,-30.3996 -58.602,-39.9147 -88.466197,-21.2536 z"
     id="path3985-0"
     inkscape:connector-curvature="0" />
  <path
     style="fill:#ffffff;fill-opacity:1;stroke:none;enable-background:new"
     d="m 132.06361,137.79849 c -1.5243,0.99222 -1.2529,2.68052 -1.2615,8.1369 l -0.087,55.78797 21.5742,-13.48112 13.2792,21.25119 16.9955,-10.62002 -13.2791,-21.25108 21.5743,-13.48112 -49.512,-23.80741 c -6.7513,-3.19187 -7.7583,-3.52732 -9.2828,-2.53531 z"
     id="path3015-7-2-2"
     inkscape:connector-curvature="0" />
</svg>
